<svg width="45" height="36" viewBox="0 0 45 36" fill="none" xmlns="http://www.w3.org/2000/svg">
  <path d="M22.5 2C22.09 2 21.69 2.13 21.37 2.37L6.87 12.37C6.32 12.76 6 13.37 6 14V28C6 28.63 6.32 29.24 6.87 29.63L21.37 39.63C21.69 39.87 22.09 40 22.5 40C22.91 40 23.31 39.87 23.63 39.63L38.13 29.63C38.68 29.24 39 28.63 39 28V14C39 13.37 38.68 12.76 38.13 12.37L23.63 2.37C23.31 2.13 22.91 2 22.5 2ZM22.5 4.5L35.25 13L22.5 21.5L9.75 13L22.5 4.5ZM8.5 15.5L21.25 24L8.5 32.5V15.5ZM23.75 24L36.5 15.5V32.5L23.75 24ZM7 14L22.5 3L38 14L23.5 24L7 14Z" fill="#DDA10C"/>
</svg>
